<svg width="35" height="35" viewBox="0 0 35 35" fill="none" xmlns="http://www.w3.org/2000/svg">
<path d="M23.6246 3.40897e-08C24.5275 -9.52026e-05 25.4192 0.199359 26.2359 0.584088C27.0527 0.968817 27.7743 1.52931 28.3491 2.22545C28.9239 2.92159 29.3377 3.73617 29.5609 4.6109C29.7841 5.48562 29.8111 6.39885 29.6401 7.28525L29.6139 7.40075C31.1365 7.90861 32.4677 8.86933 33.4294 10.1544C34.391 11.4394 34.9372 12.9874 34.9949 14.5913C35.0526 16.1953 34.619 17.7785 33.7521 19.1293C32.8852 20.48 31.6264 21.5339 30.1442 22.1497L28.2434 33.537C28.1755 33.9456 27.9648 34.3169 27.6488 34.5848C27.3328 34.8527 26.932 34.9998 26.5177 35H8.47998C8.0657 34.9998 7.66491 34.8527 7.34891 34.5848C7.03292 34.3169 6.82221 33.9456 6.75427 33.537L4.9533 22.7395C3.74202 22.6708 2.59191 22.1848 1.69846 21.3641C0.805018 20.5434 0.223377 19.4387 0.0524075 18.2378C-0.118562 17.0368 0.131689 15.8137 0.760625 14.7763C1.38956 13.739 2.35837 12.9514 3.50237 12.5475L3.49711 12.25C3.49677 10.478 3.94492 8.73483 4.79982 7.18269C5.65473 5.63055 6.88858 4.31998 8.38647 3.37304C9.88436 2.42611 11.5976 1.8736 13.3665 1.76697C15.1355 1.66035 16.9027 2.00308 18.5035 2.76325C19.061 1.91421 19.821 1.21714 20.7149 0.734779C21.6089 0.252418 22.6088 -8.51133e-05 23.6246 3.40897e-08ZM12.2482 22.75H8.50274L9.96242 31.5H12.2482V22.75ZM19.2491 22.75H15.7486V31.5H19.2491V22.75ZM26.4932 22.75H22.7495V31.5H25.0335L26.4932 22.75ZM13.9984 5.25C10.2495 5.25 7.18832 8.197 7.0063 11.8423L6.99755 12.187L7.0028 12.4845C7.01517 13.1717 6.82493 13.8473 6.45579 14.4271C6.08665 15.0069 5.55496 15.4651 4.92704 15.7447L4.66451 15.848C4.27588 15.9864 3.94855 16.2574 3.74017 16.6134C3.53179 16.9694 3.45572 17.3875 3.52537 17.794C3.59502 18.2006 3.80592 18.5695 4.12092 18.8359C4.43591 19.1022 4.83481 19.2489 5.24733 19.25H27.125C27.772 19.25 28.4108 19.1066 28.9957 18.83C29.5805 18.5535 30.0967 18.1507 30.5072 17.6507C30.9176 17.1507 31.212 16.566 31.3693 15.9385C31.5266 15.3111 31.5427 14.6566 31.4166 14.0221C31.2905 13.3877 31.0253 12.7891 30.64 12.2695C30.2547 11.7499 29.759 11.3221 29.1885 11.0171C28.6181 10.712 27.9871 10.5372 27.3409 10.5053C26.6948 10.4734 26.0496 10.5852 25.4518 10.8325L25.1455 10.9742C24.3379 11.3904 23.4002 11.4762 22.5304 11.2136C21.6607 10.9511 20.9271 10.3607 20.4847 9.56725L20.3622 9.3275C19.8029 8.11025 18.9059 7.07904 17.7779 6.35628C16.6499 5.63352 15.3382 5.24957 13.9984 5.25ZM23.6246 3.5C23.1709 3.4999 22.7249 3.61738 22.3301 3.84096C21.9354 4.06455 21.6053 4.38661 21.3721 4.77575C22.276 5.66527 23.0113 6.71115 23.5424 7.86275C24.3351 7.45736 25.1908 7.18931 26.0732 7.07C26.2266 6.67238 26.2809 6.24338 26.2314 5.82007C26.1819 5.39676 26.03 4.99187 25.789 4.64038C25.5479 4.2889 25.2249 4.00139 24.8478 3.8027C24.4707 3.60402 24.0509 3.50012 23.6246 3.5Z" fill="black"/>
</svg>
