<svg width="36" height="53" viewBox="0 0 36 53" fill="none" xmlns="http://www.w3.org/2000/svg">
<path d="M35.9978 9.60777C35.9972 8.70429 35.6931 7.82757 35.1348 7.12019C34.5766 6.4128 33.7971 5.91635 32.9231 5.71156L31.9159 2.02884C31.7324 1.43311 31.3619 0.913372 30.8601 0.547668C30.3583 0.181963 29.7522 -0.00997186 29.1328 0.000681715H6.84134C6.22441 -0.0129533 5.62018 0.178277 5.12196 0.544843C4.62373 0.911409 4.25923 1.43292 4.08473 2.02884L3.07751 5.71156C2.17237 5.94291 1.37339 6.47973 0.813853 7.23248C0.254315 7.98523 -0.0319426 8.90839 0.00283288 9.84794C0.00234942 10.7002 0.275713 11.5298 0.7821 12.2128C1.28849 12.8958 2.00073 13.3955 2.81245 13.6374L3.07751 21.0295C2.65314 21.0989 2.26253 21.3049 1.96426 21.6166C1.77717 21.8158 1.63155 22.0506 1.53595 22.3072C1.44036 22.5639 1.39673 22.8372 1.40764 23.1111L2.04378 38.4824C2.06361 38.9546 2.24661 39.405 2.56117 39.7558C2.87574 40.1066 3.30212 40.3358 3.76666 40.4038L3.97871 46.3282C4.03395 48.1216 4.78238 49.8224 6.06462 51.0686C7.34686 52.3147 9.06161 53.0076 10.8437 52.9998H25.1304C26.9171 53.0146 28.6385 52.3248 29.9265 51.0779C31.2144 49.8311 31.9666 48.1262 32.0219 46.3282L32.2339 40.4038C32.6937 40.3302 33.1139 40.0985 33.4231 39.7483C33.7324 39.398 33.9116 38.9507 33.9303 38.4824L34.5665 23.1111C34.5774 22.8372 34.5337 22.5639 34.4381 22.3072C34.3425 22.0506 34.1969 21.8158 34.0098 21.6166C33.7221 21.3052 33.3399 21.0987 32.9231 21.0295L33.1881 13.6374C34.0272 13.3635 34.7551 12.8222 35.2619 12.0954C35.7687 11.3685 36.027 10.4954 35.9978 9.60777ZM6.84134 2.66932L29.3448 2.74938L30.14 5.60481H5.91364L6.84134 2.66932ZM29.3713 46.2481C29.3367 47.3524 28.8729 48.3989 28.0798 49.1624C27.2867 49.926 26.2276 50.3457 25.1304 50.3311H10.8437C9.75003 50.3421 8.69576 49.9204 7.90763 49.1569C7.11951 48.3933 6.66049 47.3489 6.62929 46.2481L6.41725 40.4305H29.5834L29.3713 46.2481ZM12.4341 30.7167C12.4341 29.6083 12.7605 28.5248 13.3722 27.6032C13.9838 26.6816 14.8531 25.9633 15.8702 25.5391C16.8873 25.115 18.0065 25.004 19.0862 25.2202C20.166 25.4365 21.1578 25.9702 21.9362 26.7539C22.7147 27.5377 23.2448 28.5363 23.4596 29.6234C23.6743 30.7104 23.5641 31.8373 23.1428 32.8613C22.7215 33.8853 22.0081 34.7605 21.0927 35.3763C20.1774 35.9921 19.1012 36.3208 18.0003 36.3208C16.524 36.3208 15.1083 35.7304 14.0644 34.6794C13.0205 33.6284 12.4341 32.203 12.4341 30.7167ZM30.2725 20.9762H5.72809L5.46304 13.8509H30.5111L30.2725 20.9762ZM32.0219 11.1823H3.97871C3.78547 11.1766 3.59559 11.13 3.42139 11.0456C3.24719 10.9612 3.09258 10.8408 2.96759 10.6923C2.84261 10.5439 2.75004 10.3706 2.69592 10.1837C2.64179 9.99685 2.62731 9.80062 2.65342 9.60777C2.65342 9.25388 2.79305 8.9145 3.04159 8.66426C3.29013 8.41403 3.62722 8.27345 3.97871 8.27345H32.0219C32.2138 8.28313 32.4017 8.33233 32.5739 8.41802C32.7462 8.50371 32.8991 8.62406 33.0233 8.77163C33.1475 8.9192 33.2404 9.09086 33.2961 9.27599C33.3518 9.46111 33.3692 9.65578 33.3472 9.84794C33.3472 10.2018 33.2076 10.5412 32.959 10.7914C32.7105 11.0417 32.3734 11.1823 32.0219 11.1823Z" fill="black"/>
</svg>
