<svg width="30" height="37" viewBox="0 0 30 37" fill="none" xmlns="http://www.w3.org/2000/svg">
<path d="M20.7194 0H29.8838V3.36364H23.2097L22.1306 7.10064H30L27.9878 37H7.00111L5.55672 15.6039C2.44881 14.906 0 12.1747 0 8.78245C0 4.88064 3.17764 1.776 7.02435 1.776C10.2999 1.776 13.0891 4.02459 13.8478 7.10064H18.6691L20.7194 0ZM17.6978 10.4643H8.54178L8.93359 16.3204L15.6857 17.432L17.6978 10.4643ZM16.5955 20.9891L9.16602 19.7664L10.1024 33.6364H24.8849L25.6336 22.5095L16.6021 20.9908L16.5955 20.9891ZM25.8611 19.1391L26.4455 10.4643H21.1577L18.9862 17.982L25.8611 19.1391ZM10.3116 7.09895C9.99094 6.50063 9.51558 6.002 8.93648 5.65653C8.35738 5.31107 7.69638 5.1318 7.02435 5.13795C4.94743 5.13964 3.32042 6.80295 3.32042 8.78245C3.32042 10.1229 4.11732 11.3439 5.31433 11.9712L4.98727 7.10064L10.3116 7.09895Z" fill="black"/>
</svg>
