<svg width="28" height="33" viewBox="0 0 28 33" fill="none" xmlns="http://www.w3.org/2000/svg">
<path d="M6.62975 14.7895C7.06889 14.7895 7.49005 14.6162 7.80057 14.3077C8.11109 13.9992 8.28554 13.5808 8.28554 13.1445C8.28554 12.7082 8.11109 12.2898 7.80057 11.9814C7.49005 11.6729 7.06889 11.4996 6.62975 11.4996C6.19061 11.4996 5.76946 11.6729 5.45894 11.9814C5.14842 12.2898 4.97397 12.7082 4.97397 13.1445C4.97397 13.5808 5.14842 13.9992 5.45894 14.3077C5.76946 14.6162 6.19061 14.7895 6.62975 14.7895ZM14.9087 18.0761C14.9087 18.5123 14.7342 18.9307 14.4237 19.2392C14.1132 19.5477 13.692 19.721 13.2529 19.721C12.8137 19.721 12.3926 19.5477 12.0821 19.2392C11.7715 18.9307 11.5971 18.5123 11.5971 18.0761C11.5971 17.6398 11.7715 17.2214 12.0821 16.9129C12.3926 16.6044 12.8137 16.4311 13.2529 16.4311C13.692 16.4311 14.1132 16.6044 14.4237 16.9129C14.7342 17.2214 14.9087 17.6398 14.9087 18.0761ZM6.62975 24.6526C7.06889 24.6526 7.49005 24.4793 7.80057 24.1708C8.11109 23.8623 8.28554 23.4439 8.28554 23.0076C8.28554 22.5714 8.11109 22.153 7.80057 21.8445C7.49005 21.536 7.06889 21.3627 6.62975 21.3627C6.19061 21.3627 5.76946 21.536 5.45894 21.8445C5.14842 22.153 4.97397 22.5714 4.97397 23.0076C4.97397 23.4439 5.14842 23.8623 5.45894 24.1708C5.76946 24.4793 6.19061 24.6526 6.62975 24.6526ZM0.00662403 4.37692C0.00662403 1.91443 2.04324 -0.237165 4.67593 0.0210923C13.2487 0.864904 21.1909 4.87285 26.933 11.2528C28.7046 13.2152 28.1533 16.1285 26.1398 17.5777C23.5204 19.4661 19.6161 22.2773 17.3923 23.8827C17.389 24.6016 17.389 25.0688 17.3907 25.679V26.7121C17.3909 27.1329 17.2983 27.5486 17.1193 27.9299C16.9404 28.3113 16.6794 28.6491 16.3549 28.9195C16.0303 29.1898 15.65 29.3862 15.2408 29.4948C14.8316 29.6034 14.4034 29.6215 13.9864 29.548C13.6486 30.9067 12.4432 32.0598 10.7676 32.0598C9.6085 32.0598 8.67796 31.5087 8.1034 30.7192L5.90949 32.2934C3.44568 34.0601 -0.00165519 32.3115 5.96238e-07 29.2897L0.00662403 4.37692ZM4.43253 2.477C3.42416 2.37831 2.48864 3.20572 2.48864 4.37692V5.2323C6.64508 5.40598 10.7155 6.46425 14.4248 8.33555C18.134 10.2068 21.3956 12.8475 23.989 16.0791L24.6827 15.579C25.6398 14.8882 25.7623 13.6495 25.0834 12.8978C19.7552 6.97952 12.3861 3.26216 4.43253 2.48029M2.48367 29.293C2.48348 29.5205 2.5466 29.7436 2.66604 29.9376C2.78548 30.1317 2.95661 30.2892 3.1605 30.3927C3.36439 30.4961 3.59312 30.5416 3.8214 30.5241C4.04968 30.5065 4.26863 30.4266 4.45405 30.2931L7.97756 27.7714C8.16298 27.6389 8.38159 27.5597 8.60936 27.5427C8.83713 27.5256 9.06522 27.5713 9.26856 27.6746C9.47189 27.778 9.64258 27.9351 9.76186 28.1286C9.88114 28.3222 9.94438 28.5446 9.94463 28.7715C9.94463 29.2157 10.2907 29.594 10.7676 29.594C10.8767 29.5951 10.985 29.5746 11.0862 29.5337C11.1873 29.4928 11.2792 29.4323 11.3566 29.3558C11.4339 29.2792 11.4952 29.1881 11.5368 29.0878C11.5784 28.9875 11.5994 28.88 11.5988 28.7715V26.7137C11.5988 26.3865 11.7296 26.0727 11.9625 25.8413C12.1954 25.61 12.5112 25.48 12.8406 25.48C13.1699 25.48 13.4858 25.61 13.7187 25.8413C13.9516 26.0727 14.0824 26.3865 14.0824 26.7137C14.0824 26.944 14.2662 27.125 14.4931 27.125C14.6028 27.125 14.7081 27.0816 14.7858 27.0045C14.8634 26.9274 14.907 26.8228 14.907 26.7137V25.6906C14.9054 24.9174 14.9037 24.3614 14.9153 23.2412C14.9168 23.0486 14.9637 22.859 15.0523 22.6876C15.1409 22.5162 15.2686 22.3678 15.4253 22.2542C16.9188 21.1752 19.5581 19.2736 21.9755 17.5332C19.6147 14.6155 16.656 12.2303 13.2959 10.536C9.93578 8.84166 6.25121 7.87708 2.48699 7.7063L2.48367 29.293Z" fill="black"/>
</svg>
